<?xml version="1.0" standalone="no"?>
<!DOCTYPE svg PUBLIC "-//W3C//DTD SVG 20010904//EN"
 "http://www.w3.org/TR/2001/REC-SVG-20010904/DTD/svg10.dtd">
<svg version="1.0" xmlns="http://www.w3.org/2000/svg"
 width="1600.000000pt" height="371.000000pt" viewBox="0 0 1600.000000 371.000000"
 preserveAspectRatio="xMidYMid meet">

<g transform="translate(0.000000,371.000000) scale(0.100000,-0.100000)"
fill="#000000" stroke="none">
<path d="M0 3555 c0 -85 2 -155 4 -155 2 0 20 24 39 53 97 145 226 223 409
246 45 6 -10 9 -194 10 l-258 1 0 -155z"/>
<path d="M1435 3669 c3 -3 -21 -9 -52 -12 -31 -3 -59 -11 -63 -18 -5 -7 -25
-10 -53 -8 -25 2 -43 1 -40 -4 2 -4 -4 -10 -14 -14 -10 -3 -24 -11 -32 -17
-25 -19 -84 -35 -113 -29 -17 3 -28 1 -28 -6 0 -6 -11 -11 -25 -11 -15 0 -25
-6 -25 -15 0 -19 -25 -31 -85 -40 -27 -4 -44 -10 -37 -12 37 -14 -24 -43 -90
-43 -31 0 -41 -4 -45 -20 -3 -11 -9 -18 -13 -15 -5 3 -6 -4 -3 -16 5 -18 3
-20 -15 -15 -27 9 -62 -9 -63 -32 0 -12 -3 -11 -10 6 -5 13 -14 20 -20 16 -8
-5 -7 -9 2 -14 17 -11 -4 -38 -34 -42 -15 -2 -22 -10 -21 -24 0 -12 -5 -21
-10 -21 -6 0 -26 -6 -44 -14 -28 -12 -32 -17 -27 -40 4 -19 2 -27 -7 -26 -38
1 -58 -4 -58 -17 0 -7 -7 -19 -15 -26 -8 -7 -12 -16 -9 -21 3 -5 0 -9 -5 -9
-6 0 -11 8 -11 18 -1 14 -4 13 -21 -7 -13 -16 -18 -33 -15 -47 7 -25 -19 -95
-26 -73 -4 10 -14 5 -39 -19 -29 -28 -32 -35 -21 -52 7 -11 8 -20 3 -20 -5 0
-11 6 -14 13 -10 27 -31 -13 -28 -55 2 -34 0 -40 -14 -35 -9 4 -14 3 -10 -3 4
-6 -3 -18 -14 -28 -13 -11 -23 -34 -26 -62 -3 -24 -9 -47 -13 -50 -10 -7 -52
-81 -59 -102 -3 -10 -10 -18 -15 -18 -5 0 -6 -5 -3 -10 3 -6 3 -20 0 -31 -5
-15 -10 -18 -18 -10 -7 7 -14 7 -24 0 -10 -9 -13 -47 -13 -149 l0 -138 27 -6
c35 -6 121 -7 513 -6 298 0 427 6 416 18 -9 9 28 31 52 32 28 0 79 25 84 41 2
7 24 20 48 29 25 10 46 23 46 29 5 42 6 45 11 34 2 -7 9 -13 13 -13 16 0 60
47 52 55 -4 4 -1 6 7 3 17 -5 91 65 91 86 0 8 4 18 10 21 5 3 9 20 8 38 -1 44
10 77 28 77 8 0 14 8 14 18 0 9 7 26 15 36 8 11 15 33 15 49 0 17 8 35 17 42
9 7 22 30 28 51 6 22 17 38 23 37 6 -2 9 3 6 11 -4 10 6 16 33 21 50 8 93 -8
93 -35 0 -11 7 -20 15 -20 9 0 12 -6 8 -17 -4 -10 -2 -14 4 -10 16 10 57 -87
55 -134 -1 -24 3 -29 22 -29 17 0 27 -8 34 -27 6 -16 13 -37 18 -48 4 -11 6
-29 5 -39 -2 -13 2 -17 12 -13 11 4 20 -6 30 -32 9 -21 27 -45 41 -55 14 -9
26 -25 26 -36 0 -12 12 -26 30 -35 17 -9 30 -22 30 -31 0 -9 18 -23 40 -32 24
-10 38 -22 35 -29 -2 -7 2 -13 10 -13 8 0 15 -4 15 -9 0 -5 19 -12 43 -16 23
-5 45 -9 50 -10 4 -1 19 -4 35 -5 18 -1 21 -4 10 -7 -28 -7 -21 -23 10 -23 15
0 43 -4 62 -9 19 -5 51 -12 71 -15 29 -5 42 -16 67 -55 37 -57 39 -67 12 -81
-11 -6 -20 -19 -20 -29 0 -18 -18 -40 -55 -66 -17 -13 -18 -16 -5 -25 8 -5 13
-10 10 -11 -9 -2 -62 -6 -165 -13 -97 -6 -114 -13 -115 -45 0 -8 -3 -11 -6 -8
-4 3 -16 0 -28 -8 -11 -8 -31 -15 -43 -15 -16 0 -21 -4 -17 -15 4 -8 1 -15 -5
-15 -6 0 -11 -7 -11 -16 0 -12 -6 -15 -25 -10 -22 6 -26 3 -31 -24 -5 -20 -14
-32 -29 -36 -12 -3 -28 -17 -34 -30 -6 -14 -16 -22 -21 -19 -6 3 -7 -1 -4 -9
4 -10 1 -16 -9 -16 -14 0 -27 -35 -45 -125 -5 -22 -14 -39 -20 -37 -7 1 -12
-7 -12 -17 0 -11 -5 -21 -10 -23 -10 -3 -14 -812 -6 -918 l3 -35 498 0 c508 0
578 4 597 38 5 10 22 16 46 15 45 0 82 20 82 44 0 12 8 18 23 18 30 0 43 10
50 42 5 19 12 25 25 21 20 -5 49 38 38 56 -4 6 0 11 9 11 28 0 42 24 51 86 5
32 8 354 8 714 -2 596 -9 818 -30 920 -7 33 -8 34 -14 10 -6 -21 -9 -14 -19
35 -7 33 -19 80 -27 105 -8 25 -16 50 -18 55 -1 6 -8 21 -14 35 -5 14 -16 46
-22 71 -8 31 -20 51 -35 59 -16 9 -25 23 -27 44 -2 22 -8 30 -19 28 -11 -1
-19 7 -23 23 -4 14 -10 24 -15 21 -4 -3 -13 12 -20 34 -6 21 -23 48 -36 58
-14 11 -25 27 -25 36 0 8 -9 20 -20 26 -12 6 -25 22 -30 36 -5 13 -18 28 -27
31 -23 9 -43 29 -43 42 0 6 -5 11 -11 11 -5 0 -7 5 -4 10 3 6 -3 10 -13 10
-11 0 -27 12 -37 26 -9 14 -29 30 -45 35 -15 6 -30 19 -33 30 -3 10 -13 22
-24 25 -10 3 -26 10 -35 15 -10 5 -24 9 -32 9 -8 0 -19 14 -25 30 -9 28 -21
35 -46 30 -21 -4 -75 12 -70 20 4 6 -1 7 -11 3 -13 -5 -16 -3 -11 10 5 13 -5
18 -48 27 -29 6 -56 18 -59 26 -3 7 -13 14 -21 14 -10 0 -13 5 -9 11 5 8 -1
10 -18 6 -17 -5 -30 -2 -38 8 -7 8 -25 15 -40 15 -16 0 -33 8 -41 19 -12 17
-30 21 -124 25 -77 3 -128 11 -170 26 -51 18 -79 21 -182 19 -67 -2 -120 -6
-118 -10z"/>
<path d="M2992 3667 c-13 -16 -16 -121 -5 -167 8 -32 12 -35 40 -32 17 2 34
-1 37 -7 4 -7 15 -7 30 -1 13 5 27 6 30 3 3 -4 6 8 6 25 0 32 14 43 23 20 3
-7 3 10 0 37 -3 28 -6 64 -7 80 0 19 -6 30 -16 30 -8 0 -21 6 -28 13 -16 15
-44 16 -59 1 -8 -8 -13 -8 -17 0 -9 14 -21 14 -34 -2z"/>
<path d="M8782 2792 c-10 -7 -14 -200 -18 -943 -5 -813 -4 -936 8 -947 69 -57
180 -83 266 -62 95 22 87 -59 85 944 l-2 878 -27 55 c-35 72 -61 83 -196 83
-57 0 -109 -4 -116 -8z"/>
<path d="M10236 2784 c-3 -9 -6 -434 -6 -945 l0 -930 33 -14 c17 -7 47 -25 66
-39 29 -21 46 -26 95 -26 66 0 122 12 150 33 16 12 18 46 26 432 5 304 11 430
20 455 30 80 129 166 218 190 78 20 190 -18 230 -78 15 -23 18 -75 22 -487 3
-253 8 -465 12 -471 16 -24 121 -66 178 -71 57 -6 155 18 171 41 13 17 20 552
10 736 -10 209 -29 308 -74 395 -64 121 -216 240 -353 275 -128 33 -234 23
-365 -35 -31 -14 -60 -25 -65 -25 -5 0 -10 106 -11 236 l-2 235 -25 34 c-14
18 -26 38 -26 44 0 19 -74 31 -186 31 -93 0 -113 -3 -118 -16z"/>
<path d="M4310 2770 c-13 -8 -15 -120 -18 -887 -2 -483 0 -901 3 -930 6 -51 8
-53 61 -84 46 -26 69 -32 137 -36 72 -5 87 -3 120 17 20 12 38 23 39 23 1 1 4
164 8 362 3 198 10 368 14 377 5 11 25 20 53 24 58 9 676 0 691 -10 9 -5 12
-100 12 -346 0 -186 4 -349 9 -362 15 -40 110 -81 202 -86 73 -4 82 -2 119 22
22 14 42 37 46 51 11 46 -3 1726 -15 1765 -6 20 -24 51 -40 70 l-29 35 -136 0
c-74 -1 -139 -5 -143 -9 -4 -4 -10 -177 -13 -384 l-5 -376 -34 -8 c-42 -11
-706 -6 -718 5 -4 5 -10 153 -13 330 -3 208 -9 331 -17 347 -6 14 -24 38 -41
53 -25 24 -41 29 -118 37 -113 12 -155 12 -174 0z"/>
<path d="M11720 2772 c-8 -3 -18 -10 -22 -16 -4 -6 -8 -423 -8 -926 0 -503 4
-920 8 -925 4 -6 37 -26 74 -44 64 -32 72 -34 139 -28 86 7 115 24 126 74 4
21 8 259 8 530 0 482 0 491 19 475 26 -24 77 -136 190 -422 112 -283 117 -296
187 -450 67 -148 81 -167 147 -198 49 -22 63 -24 130 -18 63 5 81 11 103 32
23 22 119 196 119 217 0 4 9 26 19 50 27 58 75 188 102 272 12 39 30 86 40
105 18 35 63 153 121 323 17 48 33 87 37 87 21 0 31 -182 31 -557 0 -221 4
-412 9 -425 5 -13 36 -40 71 -61 57 -34 70 -37 134 -37 92 1 136 22 149 69 5
19 7 420 5 895 l-3 861 -28 50 c-15 27 -33 53 -40 57 -22 14 -330 9 -349 -6
-10 -7 -18 -16 -18 -20 0 -4 -16 -41 -35 -84 -19 -42 -73 -178 -120 -301 -47
-123 -88 -228 -92 -235 -4 -6 -17 -38 -29 -71 -12 -33 -46 -121 -76 -196 -31
-74 -59 -146 -63 -160 -17 -54 -98 -237 -121 -272 -14 -21 -30 -37 -36 -35 -6
2 -21 40 -33 84 -13 43 -40 114 -59 157 -20 42 -36 79 -36 82 0 3 -9 24 -19
48 -11 23 -29 65 -40 92 -10 28 -40 100 -66 160 -52 124 -124 302 -180 448
-66 171 -128 272 -184 302 -28 14 -280 28 -311 17z"/>
<path d="M14014 2772 l-72 -3 -5 -42 c-7 -66 -6 -1769 2 -1797 5 -18 26 -35
71 -59 57 -30 76 -35 150 -38 73 -3 89 -1 110 16 l25 20 8 273 c4 150 10 288
13 306 8 53 40 66 155 65 55 -1 114 -6 132 -12 40 -13 58 -44 218 -360 69
-135 127 -237 146 -256 42 -41 91 -55 189 -55 93 0 144 23 144 64 0 22 -53
133 -170 351 -161 301 -163 315 -59 395 148 113 239 291 239 465 -1 343 -257
608 -632 654 -84 11 -534 19 -664 13z m768 -381 c118 -38 158 -96 158 -233 0
-114 -43 -190 -140 -244 -68 -38 -163 -54 -324 -54 -122 0 -146 3 -157 17 -19
22 -19 476 -1 510 16 29 43 32 237 28 129 -2 173 -7 227 -24z"/>
<path d="M9585 2621 c-156 -38 -178 -63 -186 -213 -3 -60 -11 -113 -17 -121
-8 -10 -39 -16 -93 -19 -44 -3 -85 -10 -91 -16 -6 -6 -9 -50 -7 -120 5 -126 0
-117 122 -198 37 -24 70 -50 72 -57 2 -6 8 -156 14 -332 10 -355 21 -419 83
-520 97 -155 213 -210 439 -209 111 0 185 18 201 47 14 28 5 184 -14 228 -8
19 -20 46 -26 61 -15 35 -46 43 -101 23 -51 -18 -115 -19 -159 -4 -53 18 -57
42 -57 369 0 162 4 312 8 332 7 32 13 39 45 47 20 5 79 13 129 17 59 4 97 12
104 20 7 9 10 46 7 107 -6 152 -42 190 -194 208 -49 6 -90 12 -91 13 -2 1 -5
56 -8 121 -5 98 -9 122 -26 144 -12 14 -27 41 -34 59 -16 37 -21 37 -120 13z"/>
<path d="M6475 2286 c-238 -55 -410 -226 -477 -475 -25 -92 -30 -321 -10 -416
62 -284 244 -498 477 -560 155 -42 376 -27 502 33 129 61 233 139 233 174 0 6
12 35 27 65 26 54 26 55 8 86 -29 51 -66 86 -104 98 -20 7 -47 20 -61 30 -14
10 -40 22 -58 25 -28 6 -36 2 -60 -26 -60 -72 -107 -111 -169 -142 -57 -28
-76 -32 -147 -32 -64 -1 -90 4 -127 22 -124 61 -207 188 -141 218 9 4 213 9
452 11 239 2 444 6 456 8 31 7 49 100 41 213 -10 151 -94 356 -185 451 -86 88
-232 175 -347 206 -85 22 -236 28 -310 11z m324 -362 c19 -8 50 -26 69 -41 55
-42 75 -115 33 -127 -9 -3 -127 -6 -263 -8 -271 -3 -281 -1 -255 48 60 115
283 183 416 128z"/>
<path d="M7870 2293 c-97 -15 -187 -51 -281 -114 -69 -47 -169 -146 -169 -168
0 -21 52 -105 89 -144 14 -16 48 -40 74 -53 59 -30 79 -26 182 41 39 25 74 45
79 45 5 0 17 7 26 15 9 8 48 20 86 26 116 20 200 -15 244 -102 41 -80 24 -89
-178 -89 -288 0 -382 -27 -513 -148 -93 -86 -120 -143 -127 -265 -10 -189 73
-368 213 -460 23 -15 79 -36 125 -48 70 -18 103 -21 209 -17 108 4 134 9 183
31 31 14 59 31 63 36 13 23 90 12 139 -19 33 -21 65 -32 104 -36 49 -5 64 -2
112 23 l55 28 0 455 c-1 495 -4 526 -57 638 -50 106 -199 233 -333 285 -97 37
-236 54 -325 40z m299 -899 c20 -4 22 -9 17 -35 -14 -72 -119 -170 -218 -205
-83 -29 -205 -12 -222 31 -10 26 -7 114 4 136 16 30 109 73 170 79 59 6 210 2
249 -6z"/>
<path d="M0 1371 l0 -613 23 5 c27 7 42 -1 51 -29 3 -12 25 -29 47 -40 28 -12
36 -20 26 -23 -21 -8 -1 -35 33 -44 14 -4 34 -22 45 -39 11 -18 29 -34 40 -37
11 -2 22 -6 25 -10 3 -3 28 -13 55 -20 38 -11 171 -15 573 -18 520 -5 524 -4
518 15 -4 11 -2 23 4 27 5 3 10 15 10 26 0 22 11 24 28 7 9 -9 12 -9 12 0 0 7
-4 12 -10 12 -5 0 -8 75 -7 192 3 172 -7 440 -11 329 -3 -71 -13 -40 -13 39 0
56 4 75 17 85 12 8 15 18 9 31 -11 27 -25 92 -31 144 -6 54 -21 97 -46 129
-10 13 -18 31 -18 40 0 36 -22 91 -36 91 -8 0 -18 8 -21 18 -9 22 -29 42 -42
42 -6 0 -17 13 -25 29 -9 16 -26 31 -38 35 -13 3 -30 18 -39 34 -11 19 -27 31
-48 35 -22 5 -31 12 -31 27 0 14 -7 20 -22 20 -13 0 -66 4 -118 9 -52 5 -138
12 -190 16 -52 4 -101 12 -108 18 -9 7 -16 7 -20 1 -4 -6 -39 -8 -87 -5 -74 5
-77 6 -35 12 40 6 38 7 -22 6 -38 0 -68 -4 -68 -10 0 -5 -12 -6 -27 -2 -16 4
-82 8 -148 9 -77 2 -100 0 -65 -4 53 -7 52 -7 -27 -8 -46 -1 -85 2 -88 8 -3 6
-15 10 -26 10 -11 0 -17 -4 -14 -10 11 -17 -7 -11 -21 8 -11 14 -13 -84 -14
-597z m1447 -53 c-3 -7 -5 -2 -5 12 0 14 2 19 5 13 2 -7 2 -19 0 -25z"/>
</g>
</svg>
